<svg width="32" height="32" viewBox="0 0 32 32" fill="none" xmlns="http://www.w3.org/2000/svg">
<path d="M16.0001 29.3334C17.7514 29.3356 19.4858 28.9917 21.1038 28.3215C22.7217 27.6513 24.1913 26.668 25.4281 25.4281C26.668 24.1913 27.6513 22.7217 28.3215 21.1038C28.9917 19.4858 29.3356 17.7514 29.3334 16.0001C29.3356 14.2488 28.9917 12.5144 28.3215 10.8964C27.6513 9.27846 26.668 7.80887 25.4281 6.57209C24.1913 5.3322 22.7217 4.3489 21.1038 3.6787C19.4858 3.0085 17.7514 2.6646 16.0001 2.66676C14.2488 2.6646 12.5144 3.0085 10.8964 3.6787C9.27846 4.3489 7.80887 5.3322 6.57209 6.57209C5.3322 7.80887 4.3489 9.27846 3.6787 10.8964C3.0085 12.5144 2.6646 14.2488 2.66676 16.0001C2.6646 17.7514 3.0085 19.4858 3.6787 21.1038C4.3489 22.7217 5.3322 24.1913 6.57209 25.4281C7.80887 26.668 9.27846 27.6513 10.8964 28.3215C12.5144 28.9917 14.2488 29.3356 16.0001 29.3334Z" fill="#737373" stroke="#737373" stroke-width="2" stroke-linejoin="round"/>
<path d="M10 16L14 20L22 12" fill="#737373"/>
<path d="M10 16L14 20L22 12" stroke="white" stroke-width="2" stroke-linecap="round" stroke-linejoin="round"/>
</svg>
